<?xml version="1.0" standalone="no"?><!DOCTYPE svg PUBLIC "-//W3C//DTD SVG 1.1//EN" "http://www.w3.org/Graphics/SVG/1.1/DTD/svg11.dtd"><svg t="1536028865411" class="icon" style="" viewBox="0 0 1048 1024" version="1.1" xmlns="http://www.w3.org/2000/svg" p-id="742" xmlns:xlink="http://www.w3.org/1999/xlink" width="32.75" height="32"><defs><style type="text/css"></style></defs><path d="M521.03773847 862.23951758C233.12007617 862.23951758 62 754.15946592 62 521.03773847c0-60.40406602 11.68170292-119.21169023 34.10393906-173.9355785 2.99847481-7.31893271 0.20927549-28.74739482-10.00864072-80.30470167l-0.73303681-3.70520947C72.15273213 196.27039356 69.75120693 172.01270674 82.24599746 154.32490479 101.51880576 127.04358359 125.26302412 127.36378672 187.87420567 141.13138467l3.57712821 0.78449853c39.11855185 8.56200762 57.09453662 9.45857724 67.49199493 2.21512061C335.2717918 90.9589581 426.00825898 62 521.03773847 62c98.75069912 0 192.82757344 31.27928818 270.84510791 88.38068643 8.80559121 6.44523487 27.63240117 4.89911045 70.55908506-5.10038174 67.2712831-15.68653154 90.7833542-16.83011425 109.2156293 8.97141094 14.09466357 19.7279543 10.61817011 45.98576895-6.49669658 115.72719169l-0.90457471 3.68005078c-13.31359628 54.13951758-17.05196953 76.20724248-13.63494287 85.25756075 31.11804316 82.41575625 42.93697588 149.88259248 23.84828525 238.47598477-10.39059756 48.21804317-32.58640371 88.10050869-64.42376133 123.55844941-17.19263057 19.14701396-60.31257979 56.93214727-63.68157597 61.06963184-6.95527295 6.91524756-1.4466331 51.79631484 21.83100381 125.76670839l16.96848838 53.92452393-44.07369786-35.40190605c-84.29123232-67.70584511-139.29186797-100.92579433-148.17979687-97.33494288-54.14409141 21.87674737-112.23125771 33.26454932-171.87255352 33.26454932z m299.6233796-102.82642998c4.38678545-5.71677276 48.88360898-44.70609903 63.85768769-61.38297334 28.08640371-31.28043164 47.38094033-65.95044434 56.41296065-107.86505713 17.38703935-80.69123232 6.58703935-142.34409141-22.40622598-219.12998731-7.25603555-19.21791622-3.79440878-39.65260518 12.41588233-105.56874229l0.9-3.66404062c13.21639102-53.85590859 16.78094033-80.77700127 11.90127128-87.60762334-5.67217266-7.93989844-23.9992374-7.04904698-71.82617519 4.10317646-56.76632754 13.22554043-79.37382481 15.08157597-100.29682354-0.23214726C699.43329073 125.23214727 612.44091494 96.30749638 521.03773847 96.30749638c-87.95984766 0-171.86454932 26.77814472-242.48538808 75.9750961-21.72007617 15.13189336-44.99199492 13.97001269-94.43710283 3.14942783l-3.61029199-0.79250273c-46.60673467-10.24879307-63.20584511-10.4717918-70.23888193-0.51804404-3.86073721 5.46632753-1.27166484 31.60864073 8.75184258 82.31626494l0.7307499 3.69148623c12.68233769 63.99491748 15.13303682 82.81829708 8.10114346 99.98005078C107.11092763 410.72426914 96.30749638 465.1130876 96.30749638 521.03773847c0 210.01677276 153.38424375 306.89428184 424.73024209 306.89428184 55.21791621 0 108.94345576-10.53240117 159.02096573-30.76581972 23.37941513-9.44599747 66.79669658 13.2438375 140.58869062 69.49784003-14.68360898-57.61372325-15.29771309-92.19568008 0.01372325-107.25095302zM158.24396445 205.42706474l46.16874229 16.29148711c8.93481592 3.15171563 13.62121963 12.94993652 10.46950401 21.88360811a17.15374864 17.15374864 0 0 1-4.26099112 6.63278291l-9.42655606 9.10292256c-6.81461279 6.58017773-17.67407871 6.39034277-24.25540078-0.42426915a17.15374864 17.15374864 0 0 1-4.02541259-6.7768743L158.24396445 205.4282082z m743.44345576 0.48030469l-46.1687414 16.29148711c-8.93481592 3.15171563-13.62121963 12.94993652-10.46950488 21.8836081a17.15374864 17.15374864 0 0 0 4.2609911 6.63278292l9.42655694 9.10292255c6.81461279 6.58017773 17.67407871 6.39034277 24.2553999-0.42426914a17.15374864 17.15374864 0 0 0 4.02541348-6.77687431l14.66988486-46.70851289zM522.86404062 516.0025417c18.94803047 0 34.30749638-15.35946592 34.30749727-34.30749727 0-18.94803047-15.35946592-34.30749638-34.30749727-34.30749638-18.94803047 0-34.30749638 15.35946592-34.30749638 34.30749638 0 18.94803047 15.35946592 34.30749638 34.30749639 34.30749727z m-203.55781465 0c18.94803047 0 34.30749638-15.35946592 34.30749728-34.30749727 0-18.94803047-15.35946592-34.30749638-34.30749727-34.30749638-18.94803047 0-34.30749638 15.35946592-34.30749639 34.30749638 0 18.94803047 15.35946592 34.30749638 34.30749639 34.30749727z m407.11562931 0c18.94803047 0 34.30749638-15.35946592 34.30749638-34.30749727 0-18.94803047-15.35946592-34.30749638-34.30749639-34.30749638-18.94803047 0-34.30749638 15.35946592-34.30749727 34.30749638 0 18.94803047 15.35946592 34.30749638 34.30749727 34.30749727z" fill="#0891ff" p-id="743"></path></svg>