<?xml version="1.0" standalone="no"?><!DOCTYPE svg PUBLIC "-//W3C//DTD SVG 1.1//EN" "http://www.w3.org/Graphics/SVG/1.1/DTD/svg11.dtd"><svg t="1536028710682" class="icon" style="" viewBox="0 0 1024 1024" version="1.1" xmlns="http://www.w3.org/2000/svg" p-id="12535" xmlns:xlink="http://www.w3.org/1999/xlink" width="64" height="64"><defs><style type="text/css"></style></defs><path d="M532 472m-250 0a250 250 0 1 0 500 0 250 250 0 1 0-500 0Z" fill="#aaaaaa" p-id="12536"></path><path d="M512 772c-60.7 0-110 49.3-110 110v20h220v-20c0-60.7-49.3-110-110-110z m-67.1 90c8.6-28.9 35.4-50 67.1-50 31.7 0 58.5 21.1 67.1 50H444.9zM818.1 152.2l-115.6 81.2C649.7 187.2 582.8 162 512 162s-137.7 25.2-190.5 71.3l-115.6-81.2 8.3 112.6 32.4 70.1C230.5 371.3 222 411 222 452c0 77.5 30.2 150.3 84.9 205.1C361.7 711.8 434.5 742 512 742s150.3-30.2 205.1-84.9C771.8 602.3 802 529.5 802 452c0-41-8.5-80.7-24.5-117.1l32.4-70.1 8.2-112.6zM253.5 254.6l-1.6-21.2 40.9 28.7c-8.1 9.3-15.6 19.1-22.3 29.2l-17-36.7zM512 702c-137.9 0-250-112.1-250-250s112.1-250 250-250 250 112.1 250 250-112.1 250-250 250z m219.2-439.9l40.9-28.7-1.6 21.2-17 36.7c-6.8-10.1-14.2-19.9-22.3-29.2z" fill="#aaaaaa" p-id="12537"></path></svg>